<svg width="200" height="200" viewBox="0 0 200 200" fill="none" xmlns="http://www.w3.org/2000/svg">
  <!-- Background Circle -->
  <circle cx="100" cy="100" r="95" fill="#4DB3D3"/>
  
  <!-- Key Shape -->
  <g transform="translate(40, 60)">
    <!-- Key Head (Circle) -->
    <circle cx="25" cy="40" r="22" fill="white" stroke="white" stroke-width="2"/>
    <circle cx="25" cy="40" r="12" fill="#4DB3D3"/>
    
    <!-- Key Shaft -->
    <rect x="40" y="36" width="75" height="8" fill="white" rx="2"/>
    
    <!-- Key Teeth -->
    <rect x="90" y="30" width="8" height="14" fill="white"/>
    <rect x="102" y="26" width="8" height="18" fill="white"/>
    <rect x="114" y="30" width="8" height="14" fill="white"/>
  </g>
  
  <!-- Lock Icon Accent -->
  <g transform="translate(120, 100)">
    <rect x="0" y="10" width="30" height="25" rx="3" fill="white" opacity="0.9"/>
    <path d="M 5 10 L 5 5 Q 5 0, 10 0 L 20 0 Q 25 0, 25 5 L 25 10" 
          stroke="white" stroke-width="3" fill="none" opacity="0.9"/>
    <circle cx="15" cy="20" r="3" fill="#4DB3D3"/>
    <rect x="13.5" y="20" width="3" height="8" fill="#4DB3D3"/>
  </g>
  
  <!-- Text: SV -->
  <text x="100" y="165" font-family="Arial, sans-serif" font-size="36" font-weight="bold" 
        fill="white" text-anchor="middle">SV</text>
</svg>
